<svg width="500" height="500" viewBox="0 0 500 500" fill="none" xmlns="http://www.w3.org/2000/svg">
<circle cx="250" cy="250" r="250" fill="#3463DB"/>
<rect x="120.086" y="288.887" width="259.829" height="63.2479" rx="31.6239" fill="white"/>
<circle cx="250.085" cy="320.668" r="16.0262" fill="#3463DB"/>
<circle cx="345.559" cy="320.668" r="16.0262" fill="#3463DB"/>
<path d="M170.637 320.668C170.637 329.519 163.538 336.694 154.781 336.694C146.025 336.694 138.926 329.519 138.926 320.668C138.926 311.817 146.025 304.642 154.781 304.642C163.538 304.642 170.637 311.817 170.637 320.668Z" fill="#3463DB"/>
<path d="M249.996 241.006C238.14 241.006 226.284 245.888 218.613 254.955C211.638 263.324 199.085 252.165 206.059 243.796C217.218 231.243 233.258 224.269 249.996 224.269C266.734 224.269 282.775 231.243 293.933 243.796C300.907 252.165 288.354 263.324 281.38 254.955C273.708 245.888 261.852 241.006 249.996 241.006ZM249.996 199.162C227.679 199.162 207.454 206.833 191.414 222.874C184.439 229.848 171.189 219.387 179.558 211.018C198.388 192.188 223.494 182.424 249.996 182.424C276.498 182.424 301.605 192.188 320.435 211.018C328.804 219.387 315.553 229.848 308.579 222.874C292.538 206.833 272.313 199.162 249.996 199.162ZM249.996 157.317C217.915 157.317 187.926 169.173 164.912 190.793C156.543 198.464 144.687 186.608 153.056 178.937C180.255 153.83 213.731 140.579 249.996 140.579C286.262 140.579 319.737 153.83 346.936 178.937C355.305 186.608 343.449 198.464 335.08 190.793C312.066 169.173 282.077 157.317 249.996 157.317Z" fill="white"/>
</svg>
