<svg width="500" height="500" viewBox="0 0 500 500" fill="none" xmlns="http://www.w3.org/2000/svg">
<circle cx="250" cy="250" r="250" fill="#3463DB"/>
<path d="M249.94 164.156L167.514 164.156L195.881 135.789C197.946 133.724 197.946 130.375 195.883 128.311C193.817 126.246 190.467 126.246 188.402 128.311L151.009 165.706C150.763 165.952 150.543 166.223 150.35 166.511C150.262 166.645 150.2 166.789 150.123 166.927C150.036 167.091 149.935 167.247 149.865 167.421C149.79 167.599 149.747 167.784 149.694 167.969C149.651 168.116 149.594 168.256 149.564 168.407C149.495 168.751 149.459 169.097 149.459 169.445C149.459 169.449 149.46 169.453 149.46 169.457C149.462 169.799 149.496 170.143 149.564 170.48C149.595 170.639 149.655 170.785 149.701 170.941C149.753 171.117 149.792 171.296 149.864 171.466C149.94 171.65 150.044 171.817 150.139 171.99C150.21 172.119 150.267 172.252 150.349 172.376C150.542 172.668 150.764 172.94 151.011 173.188L188.403 210.578C190.469 212.644 193.817 212.644 195.883 210.58C197.948 208.515 197.948 205.166 195.883 203.099L167.515 174.733L249.94 174.733C252.861 174.733 255.229 172.365 255.229 169.445C255.229 166.524 252.861 164.156 249.94 164.156Z" fill="white"/>
<path d="M242.359 213.623L324.785 213.623L296.417 241.99C294.352 244.056 294.352 247.404 296.416 249.468C298.481 251.533 301.831 251.533 303.897 249.468L341.29 212.074C341.536 211.828 341.755 211.557 341.948 211.268C342.037 211.135 342.099 210.991 342.176 210.852C342.263 210.688 342.364 210.532 342.434 210.359C342.509 210.18 342.551 209.995 342.604 209.81C342.648 209.663 342.705 209.523 342.735 209.372C342.804 209.029 342.84 208.682 342.84 208.335C342.84 208.331 342.838 208.327 342.838 208.323C342.837 207.98 342.802 207.637 342.735 207.299C342.703 207.141 342.644 206.994 342.598 206.838C342.546 206.662 342.506 206.484 342.435 206.313C342.358 206.129 342.255 205.963 342.16 205.79C342.089 205.66 342.032 205.528 341.95 205.403C341.757 205.111 341.535 204.839 341.287 204.592L303.895 167.201C301.83 165.136 298.481 165.136 296.416 167.2C294.351 169.265 294.351 172.614 296.416 174.68L324.783 203.046L242.359 203.046C239.438 203.046 237.07 205.414 237.07 208.335C237.07 211.255 239.438 213.623 242.359 213.623Z" fill="white"/>
<rect x="120.087" y="288.89" width="259.829" height="63.2479" rx="31.6239" fill="white"/>
<rect x="138.891" y="304.703" width="32.0513" height="32.0513" rx="16" fill="#3463DB"/>
<path d="M234.187 320.728C234.187 311.892 241.376 304.703 250.213 304.703V304.703C259.049 304.703 266.238 311.892 266.238 320.728V320.728C266.238 329.565 259.049 336.754 250.213 336.754V336.754C241.376 336.754 234.187 329.565 234.187 320.728V320.728Z" fill="#3463DB"/>
<path d="M329.488 320.728C329.488 311.892 336.677 304.703 345.514 304.703V304.703C354.35 304.703 361.54 311.892 361.54 320.728V320.728C361.54 329.565 354.35 336.754 345.514 336.754V336.754C336.677 336.754 329.488 329.565 329.488 320.728V320.728Z" fill="#3463DB"/>
</svg>
