<svg width="500" height="500" viewBox="0 0 500 500" fill="none" xmlns="http://www.w3.org/2000/svg">
<circle cx="250" cy="250" r="250" fill="#3463DB"/>
<path fill-rule="evenodd" clip-rule="evenodd" d="M368.059 201.576C373.561 199.895 379.383 202.993 381.064 208.495C393.342 248.694 382.32 291.738 354.377 311.327C340.016 321.395 321.896 324.598 302.302 318.271C283.073 312.063 263.045 296.924 243.21 271.608C227.448 251.489 213.27 241.617 201.386 237.55C189.742 233.564 179.388 234.83 170.266 238.843C160.914 242.957 152.708 250.055 146.273 257.731C139.79 265.463 135.7 273.066 134.189 277.359C132.279 282.786 126.331 285.637 120.905 283.727C115.478 281.817 112.627 275.869 114.537 270.443C117.038 263.336 122.559 253.588 130.307 244.346C138.102 235.049 148.744 225.55 161.877 219.773C175.238 213.895 191.004 211.976 208.133 217.839C225.023 223.62 242.273 236.632 259.61 258.759C277.93 282.142 294.783 293.952 308.703 298.446C322.257 302.822 333.554 300.482 342.418 294.268C360.927 281.293 371.596 248.815 361.139 214.581C359.459 209.079 362.557 203.256 368.059 201.576Z" fill="black"/>
<circle cx="361.54" cy="185.898" r="31.6239" fill="white"/>
<path d="M155.986 292.735C155.986 310.2 141.828 324.359 124.362 324.359C106.897 324.359 92.7383 310.2 92.7383 292.735C92.7383 275.269 106.897 261.111 124.362 261.111C141.828 261.111 155.986 275.269 155.986 292.735Z" fill="white"/>
</svg>
